<?xml version="1.0" encoding="utf-8"?>
<!-- Generator: Adobe Illustrator 22.0.1, SVG Export Plug-In . SVG Version: 6.00 Build 0)  -->
<svg version="1.1" id="Ebene_1" xmlns="http://www.w3.org/2000/svg" xmlns:xlink="http://www.w3.org/1999/xlink" x="0px" y="0px"
	 viewBox="0 0 345 78" style="enable-background:new 0 0 345 78;" xml:space="preserve">
<style type="text/css">
	.st0{fill:#AAAAAA;}
	.st1{fill:#333333;}
</style>
<g>
	<path class="st0" d="M282.6,23.9c2.3,4.5,3.5,10,3.5,16.5s-1.2,12.1-3.5,16.5c-2.9,5.7-8.1,9.1-14.9,9.1s-11.9-3.3-14.9-9.1
		c-2.3-4.5-3.5-10-3.5-16.5s1.2-12.1,3.5-16.5c2.9-5.7,8.1-9.1,14.9-9.1S279.7,18.1,282.6,23.9z M258.4,26.6
		c-1.7,3.5-2.6,8.1-2.6,13.8c0,5.7,0.9,10.3,2.6,13.8c2,4.2,5.1,6.3,9.3,6.3s7.3-2.1,9.3-6.3c1.7-3.5,2.6-8.1,2.6-13.8
		c0-5.7-0.9-10.3-2.6-13.8c-2-4.2-5.1-6.3-9.3-6.3S260.5,22.4,258.4,26.6z"/>
	<path class="st0" d="M327,59.5v5.4h-34.9v-2.4c0-6.7,2.9-11.3,6.7-14.4c1.9-1.5,4.5-3.4,8-5.5l3.6-2.1c4.7-2.7,7.1-4.2,8.8-6.9
		c0.9-1.4,1.3-2.9,1.3-4.8c0-5.5-4.1-8.6-9.5-8.6c-5.5,0-9.1,2.4-14.2,8.8l-4.7-3.3c5-7.2,10.7-10.9,18.7-10.9c9.7,0,16,6,16,13.8
		c0,5.5-2.6,9.4-6,11.9c-1.7,1.3-4.1,2.8-7,4.5l-3.4,2l-1.4,0.8c-4.8,2.9-7,4.4-8.8,7c-0.9,1.3-1.5,2.8-1.7,4.6H327z"/>
</g>
<g>
	<g>
		<path class="st1" d="M54.2,49c0,9.8-6.7,15.7-17.3,15.7H8.8V8.9h26.6c9.8,0,16.8,5.3,16.8,14.4c0,6.1-3.3,10.3-8.7,12.1
			C50.4,37.5,54.2,42,54.2,49z M19.8,31.4h12.9c5.7,0,8.8-2.8,8.8-7.2c0-4.5-2.9-6.8-8.7-6.8h-13V31.4z M32.9,56.3
			c6.7,0,10.2-3,10.2-8.1c0-5-3.6-8.2-10.2-8.2H19.8v16.3H32.9z"/>
		<rect x="61.3" y="8.9" class="st1" width="10.2" height="10.2"/>
		<rect x="61.3" y="24.5" class="st1" width="10.2" height="40.2"/>
		<path class="st1" d="M103.9,64.2c-3,1-6,1.5-9.1,1.5c-8,0-11.4-3.7-11.4-11.3v-22h-7.2v-7.8h7.2V12.1h10.2v12.4h9.6v7.8h-9.6v20.8
			c0,2.8,1.2,3.7,4,3.7c1.4,0,3.1-0.2,5-0.7L103.9,64.2z"/>
		<path class="st1" d="M155.6,49c0,9.8-6.7,15.7-17.3,15.7h-28.1V8.9h26.6c9.8,0,16.8,5.3,16.8,14.4c0,6.1-3.3,10.3-8.7,12.1
			C151.8,37.5,155.6,42,155.6,49z M121.2,31.4h12.9c5.7,0,8.8-2.8,8.8-7.2c0-4.5-2.9-6.8-8.7-6.8h-13V31.4z M134.4,56.3
			c6.7,0,10.2-3,10.2-8.1c0-5-3.6-8.2-10.2-8.2h-13.1v16.3H134.4z"/>
		<path class="st1" d="M202.2,44.6c0,12.8-8.7,21.4-20.9,21.4c-12.2,0-20.9-8.7-20.9-21.4s8.7-21.4,20.9-21.4
			C193.5,23.2,202.2,31.9,202.2,44.6z M170.8,44.6c0,7.8,4.2,12.8,10.5,12.8c6.3,0,10.5-5,10.5-12.8c0-7.6-4.2-12.8-10.5-12.8
			C175,31.9,170.8,37,170.8,44.6z"/>
		<path class="st1" d="M231.5,64.8L222.5,51l-9.1,13.8h-11l14.5-21.1l-13.1-19.1h11.1l7.9,11.8l7.7-11.8h11l-13,18.7l14.4,21.5
			H231.5z"/>
	</g>
</g>
</svg>
